<svg xmlns="http://www.w3.org/2000/svg" version="1.1" xmlns:xlink="http://www.w3.org/1999/xlink" xmlns:svgjs="http://svgjs.dev/svgjs" width="100" height="100" viewBox="0 0 1000 378"><g transform="matrix(1,0,0,1,-0.6032277223989126,0.3419782188804845)"><svg viewBox="0 0 396 150" data-background-color="#e8772e" preserveAspectRatio="xMidYMid meet" height="378" width="1000" xmlns="http://www.w3.org/2000/svg" xmlns:xlink="http://www.w3.org/1999/xlink"><g id="tight-bounds" transform="matrix(1,0,0,1,0.2396469888702768,-0.13451478973532005)"><svg viewBox="0 0 395.52 150.27022043214825" height="150.27022043214825" width="395.52"><g><svg viewBox="0 0 395.52 150.27022043214825" height="150.27022043214825" width="395.52"><g><svg viewBox="0 0 395.52 150.27022043214825" height="150.27022043214825" width="395.52"><g id="textblocktransform"><svg viewBox="0 0 395.52 150.27022043214825" height="150.27022043214825" width="395.52" id="textblock"><g><svg viewBox="0 0 395.52 150.27022043214825" height="150.27022043214825" width="395.52"><g transform="matrix(1,0,0,1,0,0)"><svg width="395.52" viewBox="8.069239616394043 -21.133628845214844 123.27230072021484 46.834938049316406" height="150.27022043214825" data-palette-color="#ffffff"><path d="M8.069-17.409l1.175-3.488 26.052 8.775-1.175 3.488-11.05-3.722-9.959 29.568-3.952-1.331 9.959-29.568zM52.938-10.513v0c2.283 0.328 4.36 1.037 6.231 2.127 1.865 1.083 3.419 2.457 4.662 4.124 1.242 1.667 2.12 3.648 2.632 5.945 0.512 2.296 0.581 4.747 0.207 7.354v0c-0.508 3.537-1.658 6.578-3.451 9.122-1.8 2.543-4.048 4.386-6.744 5.528-2.703 1.141-5.625 1.486-8.766 1.035v0c-2.072-0.297-4.005-0.952-5.8-1.964-1.788-1.011-3.343-2.329-4.665-3.953-1.315-1.63-2.265-3.649-2.849-6.056-0.578-2.4-0.663-5.025-0.253-7.876v0c0.384-2.673 1.147-5.062 2.291-7.167 1.143-2.099 2.546-3.804 4.209-5.114 1.655-1.305 3.539-2.23 5.652-2.775 2.113-0.552 4.328-0.662 6.644-0.33zM52.2-6.921v0c-1.478-0.212-2.936-0.142-4.374 0.211-1.439 0.359-2.806 0.988-4.1 1.886-1.293 0.892-2.412 2.186-3.355 3.883-0.95 1.689-1.586 3.658-1.909 5.909v0c-0.309 2.151-0.278 4.186 0.094 6.105 0.372 1.912 1.011 3.56 1.917 4.943 0.912 1.39 2.058 2.531 3.438 3.423 1.387 0.893 2.932 1.461 4.635 1.706v0c1.148 0.165 2.301 0.158 3.458-0.019 1.158-0.184 2.301-0.572 3.43-1.165 1.121-0.587 2.145-1.359 3.07-2.317 0.926-0.958 1.732-2.189 2.42-3.694 0.688-1.511 1.167-3.203 1.436-5.077v0c0.275-1.914 0.282-3.701 0.022-5.362-0.261-1.654-0.714-3.073-1.36-4.256-0.652-1.185-1.452-2.222-2.402-3.113-0.957-0.885-1.976-1.577-3.056-2.075-1.074-0.491-2.196-0.82-3.364-0.988zM77.222 25.701l-2.728-34.773 5.263-0.413 21.216 27.615-2.284-29.101 4.167-0.327 2.729 34.773-5.264 0.414-21.228-27.654 2.287 29.14zM121.553 1.202l-16.506-14.048 4.711-1.485 12.801 11.074 4.338-16.476 4.445-1.401-5.812 21.082 4.966 15.756-3.977 1.254z" opacity="1" transform="matrix(1,0,0,1,0,0)" fill="#000000" class="undefined-text-0" data-fill-palette-color="primary" id="text-0"></path></svg></g></svg></g></svg></g></svg></g><g></g></svg></g><defs></defs></svg><rect width="395.52" height="150.27022043214825" fill="none" stroke="none" visibility="hidden"></rect></g></svg></g></svg>